<svg id="visual" viewBox="0 0 900 300" width="900" height="300" xmlns="http://www.w3.org/2000/svg" xmlns:xlink="http://www.w3.org/1999/xlink" version="1.1"><rect x="0" y="0" width="900" height="300" fill="#034694"></rect><path d="M0 95L21.5 105.2C43 115.3 86 135.7 128.8 139.2C171.7 142.7 214.3 129.3 257.2 122.2C300 115 343 114 385.8 110.2C428.7 106.3 471.3 99.7 514.2 104.2C557 108.7 600 124.3 642.8 136C685.7 147.7 728.3 155.3 771.2 149.7C814 144 857 125 878.5 115.5L900 106L900 301L878.5 301C857 301 814 301 771.2 301C728.3 301 685.7 301 642.8 301C600 301 557 301 514.2 301C471.3 301 428.7 301 385.8 301C343 301 300 301 257.2 301C214.3 301 171.7 301 128.8 301C86 301 43 301 21.5 301L0 301Z" fill="#003a62"></path><path d="M0 122L21.5 129.7C43 137.3 86 152.7 128.8 152.7C171.7 152.7 214.3 137.3 257.2 139C300 140.7 343 159.3 385.8 162.2C428.7 165 471.3 152 514.2 147.3C557 142.7 600 146.3 642.8 153.5C685.7 160.7 728.3 171.3 771.2 168.2C814 165 857 148 878.5 139.5L900 131L900 301L878.5 301C857 301 814 301 771.2 301C728.3 301 685.7 301 642.8 301C600 301 557 301 514.2 301C471.3 301 428.7 301 385.8 301C343 301 300 301 257.2 301C214.3 301 171.7 301 128.8 301C86 301 43 301 21.5 301L0 301Z" fill="#012640"></path><path d="M0 160L21.5 167.7C43 175.3 86 190.7 128.8 190.7C171.7 190.7 214.3 175.3 257.2 172.3C300 169.3 343 178.7 385.8 180C428.7 181.3 471.3 174.7 514.2 179.5C557 184.3 600 200.7 642.8 206.7C685.7 212.7 728.3 208.3 771.2 197.7C814 187 857 170 878.5 161.5L900 153L900 301L878.5 301C857 301 814 301 771.2 301C728.3 301 685.7 301 642.8 301C600 301 557 301 514.2 301C471.3 301 428.7 301 385.8 301C343 301 300 301 257.2 301C214.3 301 171.7 301 128.8 301C86 301 43 301 21.5 301L0 301Z" fill="#001220"></path><path d="M0 219L21.5 221C43 223 86 227 128.8 229C171.7 231 214.3 231 257.2 233.2C300 235.3 343 239.7 385.8 235.7C428.7 231.7 471.3 219.3 514.2 214.7C557 210 600 213 642.8 217.2C685.7 221.3 728.3 226.7 771.2 222.8C814 219 857 206 878.5 199.5L900 193L900 301L878.5 301C857 301 814 301 771.2 301C728.3 301 685.7 301 642.8 301C600 301 557 301 514.2 301C471.3 301 428.7 301 385.8 301C343 301 300 301 257.2 301C214.3 301 171.7 301 128.8 301C86 301 43 301 21.5 301L0 301Z" fill="#00111c"></path><path d="M0 262L21.5 260.2C43 258.3 86 254.7 128.8 257C171.7 259.3 214.3 267.7 257.2 265.8C300 264 343 252 385.8 249.7C428.7 247.3 471.3 254.7 514.2 253.5C557 252.3 600 242.7 642.8 243.3C685.7 244 728.3 255 771.2 255.8C814 256.7 857 247.3 878.5 242.7L900 238L900 301L878.5 301C857 301 814 301 771.2 301C728.3 301 685.7 301 642.8 301C600 301 557 301 514.2 301C471.3 301 428.7 301 385.8 301C343 301 300 301 257.2 301C214.3 301 171.7 301 128.8 301C86 301 43 301 21.5 301L0 301Z" fill="#000f19"></path></svg>